# xmcd
#
# Track frame offsets:
#	150
#	19608
#	44621
#	64858
#	94027
#	110525
#	130439
#	156033
#	176785
#	196500
#
# Disc length: 2849 seconds
#
# Revision: 0
# Processed by: cddbd v1.5.1PL2 Copyright (c) Steve Scherf et al.
# Submitted via: audiograbber 1.83.01
#
DISCID=820b1f0a
DTITLE=Mr. Myers - Disk 2  1991 - 1996
DYEAR=1900
DGENRE=
TTITLE0=Montego Bay 
TTITLE1=Let It Out
TTITLE2=Catch It Out
TTITLE3=Rum Punch
TTITLE4=First Things First
TTITLE5=What You Are
TTITLE6=Jamaican Time
TTITLE7=Thinkin' About My Home
TTITLE8=Step Back
TTITLE9=Good News Calypso
EXTD=
EXTT0=
EXTT1=
EXTT2=
EXTT3=
EXTT4=
EXTT5=
EXTT6=
EXTT7=
EXTT8=
EXTT9=
PLAYORDER=
